<svg xmlns="http://www.w3.org/2000/svg" viewBox="0 0 57 57" style="enable-background:new 0 0 57 57" xml:space="preserve"><path d="M30.9 35.8c0 .3-.1.5-.3.7-.2.2-.5.3-.7.3H13.4c-.3 0-.5-.1-.7-.3-.2-.2-.3-.5-.3-.7 0-.3.1-.5.3-.7.2-.2.5-.3.7-.3h16.5c.3 0 .5.1.7.3.2.1.3.4.3.7zm-1-9.4H13.4c-.3 0-.5.1-.7.3-.2.2-.3.5-.3.7s.1.5.3.7c.2.2.5.3.7.3h16.5c.3 0 .5-.1.7-.3.2-.2.3-.5.3-.7s-.1-.5-.3-.7c-.2-.2-.4-.3-.7-.3zM43.3 8.8v43.6c0 .8-.3 1.6-.9 2.2-.6.6-1.4.9-2.2.9H3.1c-.8 0-1.6-.3-2.2-.9-.6-.6-.9-1.4-.9-2.2V8.8c0-.8.3-1.6.9-2.2.6-.6 1.4-.9 2.2-.9h9.8c1.1-1.3 2.4-2.3 3.9-3.1 1.5-.7 3.2-1.1 4.8-1.1 1.7 0 3.3.4 4.8 1.1 1.5.7 2.8 1.8 3.9 3.1h9.8c.8 0 1.6.3 2.2.9.7.6 1 1.3 1 2.2zm-30.9 4.1v1H31v-1c0-2.5-1-4.9-2.7-6.6-1.7-1.8-4.1-2.7-6.6-2.7s-4.8 1-6.6 2.7-2.7 4.1-2.7 6.6zm28.8-4.1c0-.3-.1-.5-.3-.7-.2-.2-.5-.3-.7-.3h-8.5c.8 1.6 1.2 3.4 1.2 5.2v2c0 .3-.1.5-.3.7-.1.2-.4.3-.6.3H11.3c-.3 0-.5-.1-.7-.3-.2-.2-.3-.5-.3-.7v-2.1c0-1.8.4-3.6 1.2-5.2H3.1c-.3 0-.5.1-.7.3-.2.2-.3.5-.3.8v43.6c0 .3.1.5.3.7.2.2.5.3.7.3h37.1c.3 0 .5-.1.7-.3.2-.2.3-.5.3-.7V8.8z" stroke="none"/></svg>