<svg version="1.1" id="Слой_1" xmlns="http://www.w3.org/2000/svg" x="0" y="0" viewBox="0 0 57 57" style="enable-background:new 0 0 57 57" xml:space="preserve"><style>.st0{fill:none;stroke:#fff;stroke-width:2}.st2{fill-rule:evenodd;clip-rule:evenodd;fill:#fff}</style><path fill="none" stroke-width="2" d="M8.4 2.5c0-.6.4-1 1-1h33.5c.6 0 1 .4 1 1v12.9c0 9.8-7.9 17.8-17.8 17.8-9.8 0-17.8-7.9-17.8-17.8V2.5z"/><path stroke="none" d="M24.9 33.5h2.6v13.6h-2.6z"/><path fill="none" stroke-width="2" d="M17.2 46.1h18c.6 0 1 .4 1 1v7c0 .6-.4 1-1 1h-18c-.6 0-1-.4-1-1v-7c0-.5.4-1 1-1z"/><path stroke="none" fill-rule="evenodd" clip-rule="evenodd" d="M43 21.5c5-.3 9-4.4 9-9.5V5.6c0-.6-.5-1.1-1.1-1.1H43v2h7V12c0 4-3.1 7.2-7 7.5v2z"/><path stroke="none" fill-rule="evenodd" clip-rule="evenodd" d="M9 21.5c-5-.3-9-4.4-9-9.5V5.6c0-.6.5-1.1 1.1-1.1H9v2H2V12c0 4 3.1 7.2 7 7.5v2z"/></svg>