<svg width="55" height="38" fill="none" xmlns="http://www.w3.org/2000/svg"><path d="M12.768 37.6c-1.747 0-3.342-.343-4.785-1.027a10.761 10.761 0 0 1-3.76-2.671c-1.063-1.165-1.86-2.534-2.393-4.11C1.223 28.217.92 26.54.92 24.758c0-3.56.873-6.848 2.62-9.862 1.747-3.013 3.646-5.616 5.697-7.808A51.687 51.687 0 0 1 17.439 0l3.304 2.671c-.683.41-1.481 1.096-2.392 2.055-.988.89-1.861 1.917-2.62 3.082a18.01 18.01 0 0 0-2.052 3.698c-.607 1.301-.911 2.568-.911 3.801 0 .822.532 1.507 1.595 2.055 1.063.616 2.24 1.335 3.532 2.157a16.026 16.026 0 0 1 3.532 3.082c1.063 1.301 1.595 3.082 1.595 5.342a8.8 8.8 0 0 1-.798 3.698 10.186 10.186 0 0 1-2.165 3.083 10.84 10.84 0 0 1-3.303 2.054c-1.292.548-2.62.822-3.988.822Z" fill="#fff"/><path d="M44.016 37.6c-1.746 0-3.342-.343-4.785-1.027a10.76 10.76 0 0 1-3.76-2.671c-1.063-1.165-1.86-2.534-2.392-4.11-.608-1.575-.911-3.253-.911-5.034 0-3.56.873-6.848 2.62-9.862 1.747-3.013 3.646-5.616 5.697-7.808A51.687 51.687 0 0 1 48.688 0l3.304 2.671c-.684.41-1.481 1.096-2.393 2.055-.987.89-1.86 1.917-2.62 3.082a18.01 18.01 0 0 0-2.051 3.698c-.608 1.301-.912 2.568-.912 3.801 0 .822.532 1.507 1.596 2.055 1.063.616 2.24 1.335 3.531 2.157a16.022 16.022 0 0 1 3.532 3.082c1.064 1.301 1.595 3.082 1.595 5.342a8.8 8.8 0 0 1-.797 3.698 10.184 10.184 0 0 1-2.165 3.083 10.84 10.84 0 0 1-3.304 2.054c-1.291.548-2.62.822-3.988.822Z" fill="#fff"/></svg>