<svg width="186" height="40" fill="none" xmlns="http://www.w3.org/2000/svg"><path d="M30.858 22.69c-1.487 4.757-5.93 8.348-11.18 8.348-5.298 0-9.773-3.521-11.22-8.348L0 39.128l8.004-.532c.595-.04 1.127-.4 1.385-.947l1.447-3.083a1.766 1.766 0 0 1 1.604-1.025h14.365c.689 0 1.314.4 1.604 1.025l1.447 3.083c.259.54.783.908 1.385.947l8.004.532-8.387-16.438Z" fill="#649AA8"/><path d="M14.24 15.898c-.955 0-1.902.22-2.723.58-.297.876-.5 1.642-.579 2.245a4.633 4.633 0 0 1 2.418-.689 4.628 4.628 0 0 1 4.624 4.624 4.618 4.618 0 0 1-3.513 4.483c.938.556 2.089.963 3.49 1.143a6.733 6.733 0 0 0 3.003-5.618c-.007-3.732-2.996-6.768-6.72-6.768Z" fill="#649AA8"/><path d="M15.719 12.894a8.187 8.187 0 0 0-3.013.571 38.64 38.64 0 0 0-1.181 3.012 6.683 6.683 0 0 1 2.691-.563 6.753 6.753 0 0 1 6.752 6.752 6.74 6.74 0 0 1-3.012 5.618 14.05 14.05 0 0 0 1.58.11v.007h.079v-.008h.11a8.253 8.253 0 0 0 4.263-7.23c-.015-4.576-3.708-8.27-8.27-8.27Z" fill="#649AA8"/><path d="M16.978 10.367a9.563 9.563 0 0 0-3.114.524 87.426 87.426 0 0 0-1.166 2.574 8.256 8.256 0 0 1 11.274 7.683 8.24 8.24 0 0 1-4.287 7.23 12.12 12.12 0 0 0 1.917-.172A9.522 9.522 0 0 0 26.5 19.88c0-5.25-4.264-9.514-9.522-9.514Z" fill="#649AA8"/><path d="M28.19 18.762c-.164-1.557-1.635-4.968-3.31-8.466a10.674 10.674 0 0 0-6.69-2.339c-1.079 0-2.127.164-3.113.462-.407.821-.814 1.65-1.205 2.48a9.525 9.525 0 0 1 3.114-.524c5.258 0 9.522 4.264 9.522 9.521 0 3.584-1.98 6.698-4.906 8.325 1.612-.274 2.872-.845 3.842-1.627a10.826 10.826 0 0 0 1.659-1.925c1.032-1.784 1.29-3.951 1.087-5.907Z" fill="#649AA8"/><path d="M18.199 7.965c2.527 0 4.85.876 6.69 2.34a235.855 235.855 0 0 0-2.097-4.218 11.933 11.933 0 0 0-3.443-.5c-1.04 0-2.05.132-3.012.383-.407.782-.83 1.604-1.244 2.449a10.65 10.65 0 0 1 3.106-.454Z" fill="#649AA8"/><path d="M21.383 3.388c-.047-.008-.086-.016-.133-.016l-.29-.023c-.125-.008-.25-.024-.383-.032-.149-.008-.305-.008-.454-.015-.078 0-.156-.008-.235-.008-.14 0-.281.008-.422.008h-.14c-.572.023-1.128.094-1.683.187-.407.752-.853 1.589-1.314 2.48a11.911 11.911 0 0 1 2.363-.36c.164-.007.32-.015.485-.015.047 0 .101-.008.148-.008h.039c.282 0 .564.016.837.032h.024c.876.062 1.73.219 2.543.461-.477-.97-.955-1.878-1.385-2.691Z" fill="#649AA8"/><path d="M19.912 3.302c.5 0 .986.031 1.47.086A255.686 255.686 0 0 0 19.569 0s-.806 1.416-1.925 3.505a12.746 12.746 0 0 1 2.269-.203Z" fill="#649AA8"/><path opacity=".7" d="M14.248 15.906a6.794 6.794 0 0 0-2.731.563c-.297.877-.5 1.643-.579 2.246a4.633 4.633 0 0 1 2.418-.689 4.628 4.628 0 0 1 4.624 4.624 4.618 4.618 0 0 1-3.513 4.484c.938.555 2.089.962 3.49 1.142a6.733 6.733 0 0 0 3.003-5.618c0-3.724-2.996-6.72-6.713-6.752Z" fill="#fff"/><path opacity=".6" d="M15.719 12.894a8.187 8.187 0 0 0-3.013.571 38.64 38.64 0 0 0-1.181 3.012 6.683 6.683 0 0 1 2.691-.563 6.753 6.753 0 0 1 6.752 6.752 6.74 6.74 0 0 1-3.012 5.618 14.05 14.05 0 0 0 1.58.11v.007h.079v-.008h.11a8.253 8.253 0 0 0 4.263-7.23c-.015-4.576-3.708-8.27-8.27-8.27Z" fill="#fff"/><path opacity=".5" d="M16.978 10.367a9.563 9.563 0 0 0-3.114.524 87.426 87.426 0 0 0-1.166 2.574 8.256 8.256 0 0 1 11.274 7.683 8.24 8.24 0 0 1-4.287 7.23 12.12 12.12 0 0 0 1.917-.172A9.522 9.522 0 0 0 26.5 19.88c0-5.25-4.264-9.514-9.522-9.514Z" fill="#fff"/><path opacity=".4" d="M28.19 18.762c-.164-1.557-1.635-4.968-3.31-8.466a10.674 10.674 0 0 0-6.69-2.339c-1.079 0-2.127.164-3.113.462-.407.821-.814 1.65-1.205 2.48a9.525 9.525 0 0 1 3.114-.524c5.258 0 9.522 4.264 9.522 9.521 0 3.584-1.98 6.698-4.906 8.325 1.612-.274 2.872-.845 3.842-1.627a10.826 10.826 0 0 0 1.659-1.925c1.04-1.784 1.298-3.951 1.087-5.907Z" fill="#fff"/><path opacity=".3" d="M18.199 7.965c2.527 0 4.85.876 6.69 2.34a235.855 235.855 0 0 0-2.097-4.218 11.933 11.933 0 0 0-3.443-.5c-1.04 0-2.05.132-3.012.383-.407.782-.83 1.604-1.244 2.449a10.69 10.69 0 0 1 3.106-.454Z" fill="#fff"/><path opacity=".2" d="M21.383 3.388c-.047-.008-.086-.016-.133-.016l-.29-.023c-.125-.008-.25-.024-.383-.032-.149-.008-.305-.008-.454-.015-.078 0-.156-.008-.235-.008-.14 0-.281.008-.422.008h-.14c-.572.023-1.128.094-1.683.187-.407.752-.853 1.589-1.314 2.48a11.833 11.833 0 0 1 1.948-.328c.14-.016.281-.023.422-.031.165-.008.321-.016.485-.016.047 0 .102-.008.149-.008h.039c.282 0 .564.016.837.032h.024c.876.062 1.729.219 2.543.461-.485-.97-.963-1.878-1.393-2.691Z" fill="#fff"/><path d="m54.987 27.251 6.071-15.398h2.434l6.048 15.398h-3.17l-1.408-3.841h-5.398l-1.408 3.841h-3.17Zm7.292-12.166-2.214 6.228h4.358l-2.144-6.228Z" fill="#649AA8"/><path d="M71.19 27.251V11.877h2.997v7.503l6.658-7.527h3.099l-5.9 6.83 6.267 8.568h-3.168l-4.906-6.877-2.058 2.23v4.64H71.19v.007Z" fill="#649AA8"/><path d="m87.198 11.853 4.162 11.65 4.124-11.65h3.145L92.62 27.251H90.1l-6.047-15.398h3.145Z" fill="#649AA8"/><path d="m97.502 27.251 6.072-15.398h2.433l6.048 15.398h-3.169l-1.408-3.841h-5.399l-1.408 3.841h-3.169Zm7.285-12.166-2.215 6.228h4.358l-2.143-6.228Z" fill="#649AA8"/><path d="M123.095 14.74c-.43-.492-1.017-.892-1.745-1.197-.727-.305-1.549-.454-2.464-.454-1.377 0-2.371.259-2.997.767-.626.517-.931 1.213-.931 2.097 0 .462.086.845.251 1.142.164.298.422.556.782.767.352.22.806.407 1.346.564.54.156 1.181.32 1.917.477.821.172 1.564.367 2.214.579.649.211 1.205.477 1.666.798.462.328.814.72 1.064 1.197.243.47.368 1.048.368 1.745 0 .712-.141 1.322-.415 1.846a3.586 3.586 0 0 1-1.15 1.299 5.156 5.156 0 0 1-1.76.767 9.404 9.404 0 0 1-2.214.25c-2.418 0-4.476-.743-6.181-2.238l.735-1.236c.563.595 1.322 1.096 2.277 1.51.954.415 2.019.618 3.192.618 1.229 0 2.191-.219 2.887-.665.697-.438 1.041-1.11 1.041-2.01 0-.478-.094-.877-.29-1.206-.195-.328-.485-.61-.876-.844a6.264 6.264 0 0 0-1.463-.618 38.997 38.997 0 0 0-2.026-.525 24.165 24.165 0 0 1-2.129-.587c-.61-.203-1.118-.453-1.525-.758a3.018 3.018 0 0 1-.931-1.096c-.212-.43-.313-.954-.313-1.572 0-.705.133-1.338.399-1.902a3.826 3.826 0 0 1 1.126-1.392c.485-.368 1.064-.65 1.737-.845.673-.196 1.416-.29 2.222-.29 1.01 0 1.917.157 2.723.47a7.483 7.483 0 0 1 2.183 1.314l-.72 1.228Z" fill="#3C3C3B"/><path d="M140.965 27.251V14.607l-5.618 9.78h-.892l-5.641-9.78v12.644h-1.494V11.853h1.541l6.032 10.54 6.033-10.54h1.541v15.398h-1.502Z" fill="#3C3C3B"/><path d="m144.744 27.251 6.439-15.398h1.236l6.44 15.398h-1.628l-1.995-4.812h-6.916l-1.972 4.812h-1.604Zm7.065-13.622-3.169 7.613h6.244l-3.075-7.613Z" fill="#3C3C3B"/><path d="M161.096 27.251V11.853h6.486c.665 0 1.283.141 1.847.423.563.282 1.048.65 1.455 1.103.407.454.72.97.947 1.55.227.578.336 1.165.336 1.76 0 .563-.086 1.103-.25 1.611a4.781 4.781 0 0 1-.704 1.393 4.3 4.3 0 0 1-1.088 1.04 3.858 3.858 0 0 1-1.408.58l3.794 5.946h-1.713l-3.646-5.68h-4.554v5.68h-1.502v-.008Zm1.495-7.026h5.054c.446 0 .861-.102 1.228-.29a3.06 3.06 0 0 0 .947-.79c.258-.328.462-.704.61-1.126.141-.415.219-.86.219-1.322a3.73 3.73 0 0 0-.25-1.338 3.634 3.634 0 0 0-.673-1.12 3.18 3.18 0 0 0-1.001-.758 2.701 2.701 0 0 0-1.205-.282h-4.922v7.026h-.007Z" fill="#3C3C3B"/><path d="M185.992 13.2h-5.485v14.059h-1.517v-14.06h-5.485v-1.346H186V13.2h-.008Z" fill="#3C3C3B"/></svg>