<svg xmlns="http://www.w3.org/2000/svg" viewBox="0 0 32 32" style="enable-background:new 0 0 32 32" xml:space="preserve"><path d="M27.2 5.1c-3-2.9-7-4.5-11.2-4.5C7.2.7.1 7.5.1 15.9c0 2.7.7 5.3 2.1 7.6L0 31.3l8.4-2.1c2.3 1.2 4.9 1.8 7.6 1.8 8.7 0 16-6.8 16-15.2 0-4-1.8-7.8-4.8-10.7zM16 28.5c-2.4 0-4.7-.6-6.7-1.8l-.5-.3-5 1.3L5.1 23l-.3-.5c-1.3-2-2-4.3-2-6.7 0-7 5.9-12.6 13.2-12.6 3.5 0 6.8 1.3 9.3 3.7s4 5.6 4 8.9c0 7-6 12.7-13.3 12.7zm7.2-9.5c-.4-.2-2.3-1.1-2.7-1.2-.4-.1-.6-.2-.9.2-.3.4-1 1.2-1.3 1.5-.2.3-.5.3-.9.1-2.3-1.1-3.9-2-5.4-4.5-.4-.7.4-.6 1.2-2.1.1-.3.1-.5 0-.7-.1-.2-.9-2.1-1.2-2.8-.3-.7-.7-.6-.9-.6h-.8c-.3 0-.6.1-1 .4-.4.4-1.4 1.3-1.4 3.2s1.4 3.7 1.6 3.9c.2.3 2.8 4.1 6.8 5.7 2.5 1 3.5 1.1 4.8 1 .8-.1 2.3-.9 2.7-1.8.3-.9.3-1.6.2-1.8-.1-.2-.4-.3-.8-.5z" style="fill:#fff"/></svg>