<svg width="57" height="57" fill="none" xmlns="http://www.w3.org/2000/svg"><path d="M53.563 22.585c-1.063-1.109-2.163-2.255-2.627-3.379-.435-1.05-.457-2.515-.48-4.066-.036-2.375-.077-5.066-1.804-6.792-1.726-1.727-4.417-1.768-6.792-1.804-1.551-.023-3.016-.045-4.066-.48-1.124-.465-2.27-1.564-3.379-2.627C32.654 1.747 30.831 0 28.5 0s-4.153 1.747-5.915 3.437C21.476 4.5 20.33 5.599 19.206 6.064c-1.05.435-2.515.457-4.066.48-2.375.036-5.066.077-6.792 1.804-1.727 1.726-1.768 4.417-1.804 6.792-.023 1.551-.045 3.016-.48 4.066-.465 1.124-1.564 2.27-2.627 3.379C1.747 24.347 0 26.169 0 28.5s1.747 4.153 3.437 5.915c1.063 1.109 2.162 2.255 2.627 3.379.435 1.05.457 2.515.48 4.066.036 2.375.077 5.066 1.804 6.792 1.726 1.727 4.417 1.768 6.792 1.804 1.551.023 3.016.045 4.066.48 1.124.465 2.27 1.564 3.379 2.627C24.347 55.253 26.169 57 28.5 57s4.153-1.747 5.915-3.437c1.109-1.063 2.255-2.163 3.379-2.627 1.05-.435 2.515-.457 4.066-.48 2.375-.036 5.066-.077 6.792-1.804 1.727-1.726 1.768-4.417 1.804-6.792.023-1.551.045-3.016.48-4.066.465-1.124 1.564-2.27 2.627-3.379C55.253 32.653 57 30.831 57 28.5s-1.747-4.153-3.437-5.915Zm-1.524 10.37c-1.198 1.248-2.437 2.54-3.054 4.032-.589 1.422-.615 3.16-.64 4.841-.033 2.165-.064 4.21-1.185 5.332-1.122 1.121-3.167 1.152-5.332 1.185-1.681.025-3.419.051-4.841.64-1.491.617-2.784 1.856-4.033 3.054-1.528 1.466-2.971 2.85-4.454 2.85-1.483 0-2.926-1.384-4.454-2.85-1.25-1.198-2.541-2.437-4.033-3.054-1.422-.589-3.16-.615-4.841-.64-2.165-.033-4.21-.064-5.332-1.185-1.121-1.122-1.152-3.167-1.185-5.332-.025-1.681-.051-3.419-.64-4.841-.617-1.491-1.856-2.784-3.054-4.033-1.466-1.528-2.85-2.971-2.85-4.454 0-1.483 1.384-2.926 2.85-4.454 1.198-1.25 2.437-2.541 3.054-4.033.589-1.422.615-3.16.64-4.841.033-2.165.064-4.21 1.185-5.332 1.122-1.121 3.167-1.152 5.332-1.185 1.681-.025 3.419-.051 4.841-.64 1.491-.617 2.784-1.856 4.033-3.054 1.528-1.466 2.971-2.85 4.454-2.85 1.483 0 2.926 1.384 4.454 2.85 1.25 1.198 2.541 2.437 4.033 3.054 1.422.589 3.16.615 4.841.64 2.165.033 4.21.064 5.332 1.185 1.121 1.122 1.152 3.167 1.185 5.332.025 1.681.051 3.419.64 4.841.617 1.491 1.856 2.784 3.054 4.033 1.466 1.528 2.85 2.971 2.85 4.454 0 1.483-1.384 2.926-2.85 4.454Z" fill="#fff" stroke="none"/><path d="M39.48 28.74c0 5.932-4.808 10.74-10.74 10.74C22.81 39.48 18 34.673 18 28.74 18 22.81 22.809 18 28.74 18c5.932 0 10.74 4.809 10.74 10.74Z" stroke="#fff" fill="none" stroke-width="2"/></svg>