<svg xmlns="http://www.w3.org/2000/svg" viewBox="0 0 32 32" style="enable-background:new 0 0 32 32" xml:space="preserve"><path d="M16 8.6c-1.5 0-2.9.4-4.1 1.2-1.2.8-2.2 2-2.7 3.3-.6 1.3-.7 2.8-.4 4.3.3 1.4 1 2.7 2 3.8s2.3 1.7 3.8 2c1.4.3 2.9.1 4.3-.4 1.3-.6 2.5-1.5 3.3-2.7.8-1.2 1.2-2.6 1.2-4.1 0-2-.8-3.8-2.2-5.2C19.8 9.4 18 8.6 16 8.6zm0 12.8c-1.1 0-2.1-.3-3-.9-.9-.6-1.6-1.4-2-2.4-.4-1-.5-2.1-.3-3.1s.7-2 1.5-2.8c.8-.8 1.7-1.3 2.8-1.5s2.2-.1 3.1.3c1 .4 1.8 1.1 2.4 2 .6.9.9 1.9.9 3 0 1.4-.6 2.8-1.6 3.8s-2.4 1.6-3.8 1.6zM23 .3H9c-2.3 0-4.5.9-6.1 2.5S.3 6.7.3 9v14c0 2.3.9 4.5 2.5 6.1 1.6 1.6 3.8 2.5 6.1 2.5H23c2.3 0 4.5-.9 6.1-2.5 1.6-1.6 2.5-3.8 2.5-6.1V9c0-2.3-.9-4.5-2.5-6.1C27.5 1.2 25.3.3 23 .3zM29.8 23c0 1.8-.7 3.5-2 4.8-1.3 1.3-3 2-4.8 2H9c-1.8 0-3.5-.7-4.8-2-1.3-1.3-2-3-2-4.8V9c0-1.8.7-3.5 2-4.8 1.3-1.3 3-2 4.8-2h14c1.8 0 3.5.7 4.8 2 1.3 1.3 2 3 2 4.8v14zM25.9 7.7c0 .3-.1.6-.3.9-.2.3-.4.5-.7.6-.3.1-.6.2-.9.1-.3-.1-.6-.2-.8-.4-.2-.3-.4-.6-.4-.9-.1-.3 0-.6.1-.9.1-.3.3-.5.6-.7.3-.2.6-.3.9-.3.4 0 .8.2 1.1.5.3.2.4.6.4 1.1z" style="fill:#fff"/></svg>