<svg width="186" height="39" fill="none" xmlns="http://www.w3.org/2000/svg"><path d="M30.806 22.616c-1.484 4.74-5.92 8.32-11.162 8.32-5.288 0-9.755-3.509-11.2-8.32L0 39l7.99-.53a1.65 1.65 0 0 0 1.383-.944l1.445-3.073a1.763 1.763 0 0 1 1.601-1.021H26.76c.688 0 1.312.398 1.601 1.021l1.445 3.073c.258.538.781.905 1.383.944l7.99.53-8.373-16.384Z" fill="#fff"/><path d="M14.216 15.846a6.87 6.87 0 0 0-2.719.578c-.296.873-.5 1.637-.578 2.238a4.63 4.63 0 0 1 2.414-.687 4.617 4.617 0 0 1 4.616 4.61c0 2.167-1.5 3.976-3.507 4.468.938.553 2.086.959 3.484 1.138a6.709 6.709 0 0 0 3-5.599c-.009-3.72-2.992-6.746-6.71-6.746Z" fill="#649AA8"/><path d="M15.69 12.852a8.185 8.185 0 0 0-3.006.57 38.496 38.496 0 0 0-1.18 3.002 6.68 6.68 0 0 1 2.687-.562c3.718 0 6.741 3.01 6.741 6.73 0 2.34-1.195 4.39-3.007 5.6.492.062 1.015.1 1.578.108v.008h.078V28.3h.11a8.225 8.225 0 0 0 4.256-7.205c-.016-4.562-3.702-8.243-8.256-8.243Z" fill="#649AA8"/><path d="M16.95 10.333a9.558 9.558 0 0 0-3.11.522 86.659 86.659 0 0 0-1.163 2.566 8.193 8.193 0 0 1 3.015-.57c4.553 0 8.24 3.69 8.24 8.228 0 3.112-1.734 5.81-4.28 7.206a12.12 12.12 0 0 0 1.914-.172c2.913-1.622 4.89-4.726 4.89-8.297 0-5.233-4.258-9.483-9.507-9.483Z" fill="#649AA8"/><path d="M28.143 18.7c-.165-1.551-1.633-4.951-3.304-8.437A10.667 10.667 0 0 0 18.16 7.93c-1.078 0-2.124.164-3.108.46-.407.819-.813 1.646-1.203 2.472a9.526 9.526 0 0 1 3.108-.522c5.25 0 9.506 4.25 9.506 9.49 0 3.572-1.976 6.676-4.897 8.298 1.609-.273 2.866-.842 3.835-1.622.625-.57 1.18-1.217 1.656-1.919 1.03-1.777 1.289-3.938 1.086-5.887Z" fill="#649AA8"/><path d="M18.168 7.939a10.7 10.7 0 0 1 6.678 2.332 234.38 234.38 0 0 0-2.093-4.204 11.93 11.93 0 0 0-3.437-.499c-1.039 0-2.046.133-3.007.382-.406.78-.828 1.599-1.242 2.441a10.648 10.648 0 0 1 3.1-.452Z" fill="#649AA8"/><path d="M21.347 3.377c-.047-.008-.086-.016-.133-.016l-.289-.023c-.125-.008-.25-.024-.382-.031-.149-.008-.305-.008-.453-.016-.079 0-.157-.008-.235-.008-.14 0-.281.008-.422.008h-.14c-.57.023-1.125.094-1.68.187-.406.749-.85 1.583-1.312 2.472a11.905 11.905 0 0 1 2.36-.358c.163-.008.32-.016.483-.016.047 0 .102-.008.149-.008h.039c.281 0 .562.016.836.031h.023c.875.063 1.726.219 2.539.46a101.56 101.56 0 0 0-1.383-2.682Z" fill="#649AA8"/><path d="M19.878 3.29c.5 0 .985.032 1.469.087C20.285 1.365 19.535 0 19.535 0s-.805 1.412-1.922 3.494a12.746 12.746 0 0 1 2.265-.203Z" fill="#649AA8"/><path opacity=".7" d="M14.223 15.854a6.792 6.792 0 0 0-2.726.562c-.296.873-.5 1.637-.578 2.238a4.63 4.63 0 0 1 2.414-.686 4.617 4.617 0 0 1 4.616 4.608c0 2.168-1.5 3.978-3.507 4.469.938.554 2.086.96 3.484 1.139a6.709 6.709 0 0 0 3-5.6c0-3.712-2.992-6.699-6.703-6.73Z" fill="#fff"/><path opacity=".6" d="M15.69 12.852a8.185 8.185 0 0 0-3.006.57 38.496 38.496 0 0 0-1.18 3.002 6.68 6.68 0 0 1 2.687-.562c3.718 0 6.741 3.01 6.741 6.73 0 2.34-1.195 4.39-3.007 5.6.492.062 1.015.1 1.578.108v.008h.078V28.3h.11a8.225 8.225 0 0 0 4.256-7.205c-.016-4.562-3.702-8.243-8.256-8.243Z" fill="#fff"/><path opacity=".5" d="M16.95 10.333a9.558 9.558 0 0 0-3.11.522 86.659 86.659 0 0 0-1.163 2.566 8.193 8.193 0 0 1 3.015-.57c4.553 0 8.24 3.69 8.24 8.228 0 3.112-1.734 5.81-4.28 7.206a12.12 12.12 0 0 0 1.914-.172c2.913-1.622 4.89-4.726 4.89-8.297 0-5.233-4.258-9.483-9.507-9.483Z" fill="#fff"/><path opacity=".4" d="M28.143 18.7c-.165-1.551-1.633-4.951-3.304-8.437A10.667 10.667 0 0 0 18.16 7.93c-1.078 0-2.124.164-3.108.46-.407.819-.813 1.646-1.203 2.472a9.526 9.526 0 0 1 3.108-.522c5.25 0 9.506 4.25 9.506 9.49 0 3.572-1.976 6.676-4.897 8.298 1.609-.273 2.866-.842 3.835-1.622.625-.57 1.18-1.217 1.656-1.919 1.039-1.777 1.297-3.938 1.086-5.887Z" fill="#fff"/><path opacity=".3" d="M18.168 7.939a10.7 10.7 0 0 1 6.678 2.332 234.38 234.38 0 0 0-2.093-4.204 11.93 11.93 0 0 0-3.437-.499c-1.039 0-2.046.133-3.007.382-.406.78-.828 1.599-1.242 2.441a10.688 10.688 0 0 1 3.1-.452Z" fill="#fff"/><path opacity=".2" d="M21.347 3.377c-.047-.008-.086-.016-.133-.016l-.289-.023c-.125-.008-.25-.024-.382-.031-.149-.008-.305-.008-.453-.016-.079 0-.157-.008-.235-.008-.14 0-.281.008-.422.008h-.14c-.57.023-1.125.094-1.68.187-.406.749-.85 1.583-1.312 2.472a11.827 11.827 0 0 1 2.367-.358c.164-.008.32-.016.484-.016.047 0 .102-.008.149-.008h.039c.28 0 .562.016.835.031h.024a11.86 11.86 0 0 1 2.538.46c-.484-.967-.96-1.871-1.39-2.682Z" fill="#fff"/><path d="m54.895 27.162 6.061-15.347h2.43l6.037 15.347H66.26l-1.406-3.83h-5.39l-1.406 3.83h-3.163Zm7.28-12.127-2.21 6.208h4.35l-2.14-6.208Z" fill="#fff"/><path d="M71.071 27.162V11.838h2.992v7.479l6.647-7.502h3.093l-5.89 6.808 6.257 8.539h-3.163l-4.898-6.855-2.054 2.223v4.624H71.07v.008Z" fill="#fff"/><path d="m87.052 11.815 4.156 11.612 4.116-11.612h3.14l-5.999 15.347H89.95l-6.038-15.347h3.14Z" fill="#fff"/><path d="m97.34 27.162 6.06-15.347h2.43l6.038 15.347h-3.164l-1.406-3.83h-5.389l-1.406 3.83h-3.164Zm7.271-12.127-2.21 6.208h4.35l-2.14-6.208Z" fill="#fff"/><path d="M122.889 14.692c-.43-.491-1.016-.889-1.742-1.193-.726-.304-1.547-.452-2.46-.452-1.375 0-2.367.257-2.992.764-.625.515-.929 1.209-.929 2.09 0 .46.085.842.25 1.139.164.296.421.553.781.764.351.218.804.405 1.343.561.539.156 1.18.32 1.914.476.82.172 1.562.367 2.21.577.649.21 1.203.476 1.664.796.461.327.812.717 1.062 1.193.242.468.367 1.045.367 1.739 0 .71-.14 1.318-.414 1.84a3.582 3.582 0 0 1-1.148 1.295c-.492.343-1.078.6-1.757.764-.68.164-1.414.25-2.211.25-2.413 0-4.468-.741-6.17-2.23l.734-1.233c.562.593 1.32 1.092 2.273 1.505.953.413 2.015.616 3.187.616 1.226 0 2.187-.218 2.882-.663.695-.436 1.039-1.107 1.039-2.004 0-.476-.094-.873-.289-1.2-.196-.328-.485-.61-.875-.843a6.28 6.28 0 0 0-1.461-.616 38.697 38.697 0 0 0-2.023-.523A24.133 24.133 0 0 1 116 19.52c-.61-.203-1.117-.453-1.523-.757a3.018 3.018 0 0 1-.93-1.092c-.211-.429-.312-.951-.312-1.567 0-.702.132-1.334.398-1.895a3.812 3.812 0 0 1 1.125-1.388c.484-.367 1.062-.648 1.734-.843.672-.194 1.414-.288 2.218-.288 1.008 0 1.914.156 2.718.468a7.467 7.467 0 0 1 2.179 1.31l-.718 1.224Z" fill="#fff"/><path d="M140.729 27.162V14.56l-5.608 9.748h-.891l-5.631-9.748v12.602h-1.492V11.815h1.539l6.022 10.504 6.022-10.504h1.539v15.347h-1.5Z" fill="#fff"/><path d="m144.501 27.162 6.429-15.347h1.234l6.428 15.347h-1.624l-1.992-4.796h-6.905l-1.968 4.796h-1.602Zm7.054-13.577-3.164 7.588h6.233l-3.069-7.588Z" fill="#fff"/><path d="M160.826 27.162V11.815h6.475c.664 0 1.281.14 1.844.42a4.83 4.83 0 0 1 1.452 1.1c.407.453.719.967.946 1.544.226.578.335 1.162.335 1.755a5.2 5.2 0 0 1-.249 1.607 4.783 4.783 0 0 1-.703 1.388 4.289 4.289 0 0 1-1.086 1.037c-.422.28-.891.476-1.406.577l3.788 5.927h-1.71l-3.64-5.662h-4.546v5.662h-1.5v-.008Zm1.492-7.003h5.046a2.68 2.68 0 0 0 1.226-.289c.367-.195.68-.46.945-.787.258-.328.461-.702.609-1.123a4.08 4.08 0 0 0 .219-1.318c0-.46-.086-.905-.25-1.334a3.617 3.617 0 0 0-.672-1.115 3.172 3.172 0 0 0-.999-.756 2.698 2.698 0 0 0-1.203-.281h-4.913v7.003h-.008Z" fill="#fff"/><path d="M185.68 13.156h-5.475V27.17h-1.515V13.156h-5.476v-1.341h12.474v1.341h-.008Z" fill="#fff"/></svg>