<?xml version="1.0" standalone="no"?>
<!DOCTYPE svg PUBLIC "-//W3C//DTD SVG 20010904//EN"
 "http://www.w3.org/TR/2001/REC-SVG-20010904/DTD/svg10.dtd">
<svg version="1.0" xmlns="http://www.w3.org/2000/svg"
 width="700.000000pt" height="700.000000pt" viewBox="0 0 700.000000 700.000000"
 preserveAspectRatio="xMidYMid meet">
<metadata>
Created by potrace 1.14, written by Peter Selinger 2001-2017
</metadata>
<g transform="translate(0.000000,700.000000) scale(0.100000,-0.100000)"
fill="#000000" stroke="none">
<path d="M0 3500 l0 -3500 3500 0 3500 0 0 3500 0 3500 -3500 0 -3500 0 0
-3500z m3605 2520 c54 -102 108 -201 120 -220 13 -19 90 -165 172 -325 361
-698 641 -1321 723 -1610 26 -92 32 -133 37 -256 15 -392 -87 -671 -333 -912
-73 -71 -141 -117 -247 -167 -278 -131 -692 -157 -1015 -64 -85 24 -262 101
-262 114 0 3 26 15 58 25 77 27 190 104 252 173 57 63 121 187 141 272 7 30
12 98 12 150 -1 161 -63 307 -180 422 -102 101 -185 146 -324 174 -127 26
-259 8 -383 -52 -60 -29 -56 -29 -56 -3 0 94 139 484 300 838 138 304 519
1057 610 1206 20 33 85 149 145 258 94 174 109 196 120 180 6 -10 56 -101 110
-203z m-1590 -2917 c40 -114 136 -296 209 -394 240 -325 567 -534 969 -621 86
-18 134 -22 302 -22 171 0 215 3 305 22 491 107 887 414 1110 860 26 53 59
127 72 165 12 37 25 67 28 67 13 0 1136 -2215 1124 -2218 -23 -6 -1089 69
-1128 79 -77 21 -120 81 -236 333 -111 241 -139 283 -211 316 -43 19 -69 20
-1059 20 -662 0 -1028 -4 -1052 -10 -20 -6 -57 -30 -82 -53 -39 -36 -61 -75
-152 -272 -59 -126 -118 -245 -132 -262 -13 -18 -47 -44 -75 -57 -50 -24 -75
-27 -605 -62 -304 -20 -555 -34 -557 -32 -3 3 248 497 558 1099 568 1103 576
1119 581 1119 2 0 16 -35 31 -77z"/>
</g>
</svg>
